# xmcd
#
# Track frame offsets:
#	150
#	13022
#	28817
#	42475
#	51915
#	70007
#	83885
#	97950
#	110692
#	122757
#	138845
#
# Disc length: 2047 seconds
#
# Revision: 1
# Processed by: cddbd v1.4PL0 Copyright (c) Steve Scherf et al.
# Submitted via: audiograbber 1.81.03
#
DISCID=9207fd0b
DTITLE=The Riptones - Buckshot
DYEAR=2000
DGENRE=Country
TTITLE0=Rebel Rock Armageddon
TTITLE1=Treat Her Right
TTITLE2=Pardon Me
TTITLE3=Buckshot
TTITLE4=Yvette
TTITLE5=Getting By
TTITLE6=Plastic Love
TTITLE7=Gone To Seed
TTITLE8=Army Blues
TTITLE9=Get Me A Job
TTITLE10=Burdett's Pond
EXTD=
EXTT0=
EXTT1=
EXTT2=
EXTT3=
EXTT4=
EXTT5=
EXTT6=
EXTT7=
EXTT8=
EXTT9=
EXTT10=
PLAYORDER=
